<svg width="24" height="24" viewBox="0 0 24 24" fill="none" xmlns="http://www.w3.org/2000/svg">
<path d="M15.24 22.27H15.11C10.67 22.27 8.53 20.52 8.16 16.6C8.12 16.19 8.42 15.82 8.84 15.78C9.24 15.74 9.62 16.05 9.66 16.46C9.95 19.6 11.43 20.77 15.12 20.77H15.25C19.32 20.77 20.76 19.33 20.76 15.26V8.73998C20.76 4.66998 19.32 3.22998 15.25 3.22998H15.12C11.41 3.22998 9.93 4.41998 9.66 7.61998C9.61 8.02998 9.26 8.33998 8.84 8.29998C8.42 8.26998 8.12 7.89998 8.15 7.48998C8.49 3.50998 10.64 1.72998 15.11 1.72998H15.24C20.15 1.72998 22.25 3.82998 22.25 8.73998V15.26C22.25 20.17 20.15 22.27 15.24 22.27Z" fill="#9E9E9E"/>
<path d="M15 12.75H3.62C3.21 12.75 2.87 12.41 2.87 12C2.87 11.59 3.21 11.25 3.62 11.25H15C15.41 11.25 15.75 11.59 15.75 12C15.75 12.41 15.41 12.75 15 12.75Z" fill="#9E9E9E"/>
<path d="M5.85 16.1C5.66 16.1 5.47 16.03 5.32 15.88L1.97 12.53C1.68 12.24 1.68 11.76 1.97 11.47L5.32 8.12003C5.61 7.83003 6.09 7.83003 6.38 8.12003C6.67 8.41003 6.67 8.89003 6.38 9.18003L3.56 12L6.38 14.82C6.67 15.11 6.67 15.59 6.38 15.88C6.24 16.03 6.04 16.1 5.85 16.1Z" fill="#9E9E9E"/>
</svg>
