<svg width="445" height="107" viewBox="0 0 445 107" fill="none" xmlns="http://www.w3.org/2000/svg">
<path d="M163.51 48.2452H155.733C155.591 47.2391 155.301 46.3454 154.863 45.5641C154.425 44.771 153.862 44.0963 153.176 43.54C152.489 42.9836 151.696 42.5575 150.797 42.2616C149.909 41.9656 148.944 41.8177 147.902 41.8177C146.02 41.8177 144.381 42.2852 142.984 43.2204C141.587 44.1437 140.504 45.4931 139.735 47.2687C138.965 49.0324 138.581 51.1749 138.581 53.6962C138.581 56.2886 138.965 58.4666 139.735 60.2303C140.516 61.9941 141.605 63.3257 143.002 64.2254C144.399 65.125 146.014 65.5748 147.849 65.5748C148.879 65.5748 149.832 65.4387 150.708 65.1664C151.596 64.8941 152.383 64.4976 153.069 63.9768C153.756 63.4441 154.324 62.799 154.774 62.0414C155.236 61.2838 155.555 60.4197 155.733 59.4491L163.51 59.4846C163.308 61.1536 162.805 62.7635 162 64.3141C161.207 65.853 160.136 67.232 158.787 68.4512C157.449 69.6586 155.851 70.6174 153.993 71.3276C152.146 72.026 150.057 72.3752 147.725 72.3752C144.482 72.3752 141.581 71.6413 139.025 70.1735C136.48 68.7057 134.467 66.5809 132.988 63.7992C131.52 61.0175 130.786 57.6498 130.786 53.6962C130.786 49.7308 131.532 46.3572 133.023 43.5755C134.515 40.7938 136.539 38.6749 139.096 37.219C141.652 35.7512 144.529 35.0173 147.725 35.0173C149.832 35.0173 151.785 35.3132 153.584 35.905C155.395 36.4969 156.999 37.361 158.396 38.4974C159.793 39.6219 160.929 41.0009 161.805 42.6344C162.693 44.268 163.261 46.1382 163.51 48.2452ZM168.881 71.8781V44.6053H176.214V49.3638H176.498C176.995 47.6711 177.83 46.3927 179.002 45.5286C180.173 44.6527 181.523 44.2147 183.05 44.2147C183.429 44.2147 183.837 44.2384 184.275 44.2857C184.713 44.3331 185.098 44.3982 185.429 44.481V51.1927C185.074 51.0861 184.583 50.9915 183.955 50.9086C183.328 50.8257 182.754 50.7843 182.233 50.7843C181.12 50.7843 180.126 51.027 179.25 51.5123C178.386 51.9858 177.699 52.6486 177.19 53.5009C176.693 54.3532 176.445 55.3357 176.445 56.4484V71.8781H168.881ZM194.84 82.1053C193.881 82.1053 192.981 82.0284 192.141 81.8745C191.312 81.7325 190.626 81.549 190.081 81.3241L191.786 75.6778C192.673 75.95 193.472 76.098 194.183 76.1217C194.905 76.1453 195.526 75.9796 196.047 75.6245C196.58 75.2694 197.012 74.6657 197.343 73.8134L197.787 72.6593L188.004 44.6053H195.958L201.604 64.6337H201.889L207.588 44.6053H215.596L204.996 74.8255C204.487 76.2933 203.794 77.5717 202.918 78.6607C202.054 79.7616 200.959 80.6079 199.634 81.1998C198.308 81.8035 196.71 82.1053 194.84 82.1053ZM219.467 82.1053V44.6053H226.924V49.1863H227.261C227.593 48.4524 228.072 47.7066 228.7 46.9491C229.339 46.1797 230.167 45.5405 231.185 45.0315C232.215 44.5106 233.494 44.2502 235.021 44.2502C237.009 44.2502 238.844 44.771 240.525 45.8127C242.206 46.8425 243.549 48.3991 244.555 50.4825C245.562 52.554 246.065 55.1522 246.065 58.2772C246.065 61.3193 245.573 63.888 244.591 65.9832C243.62 68.0665 242.295 69.6468 240.614 70.7239C238.945 71.7893 237.074 72.3219 235.003 72.3219C233.535 72.3219 232.286 72.0793 231.256 71.594C230.238 71.1086 229.404 70.499 228.753 69.7651C228.102 69.0194 227.605 68.2677 227.261 67.5102H227.031V82.1053H219.467ZM226.871 58.2417C226.871 59.8634 227.096 61.2779 227.546 62.4853C227.995 63.6927 228.646 64.6337 229.499 65.3084C230.351 65.9713 231.387 66.3028 232.606 66.3028C233.837 66.3028 234.879 65.9654 235.731 65.2907C236.583 64.6041 237.228 63.6572 237.666 62.4498C238.116 61.2306 238.341 59.8279 238.341 58.2417C238.341 56.6674 238.122 55.2824 237.684 54.0869C237.246 52.8913 236.601 51.9562 235.749 51.2815C234.896 50.6067 233.849 50.2694 232.606 50.2694C231.375 50.2694 230.333 50.5949 229.481 51.2459C228.64 51.897 227.995 52.8203 227.546 54.0158C227.096 55.2114 226.871 56.62 226.871 58.2417ZM265.614 44.6053V50.2871H249.19V44.6053H265.614ZM252.918 38.0712H260.482V63.4974C260.482 64.1958 260.589 64.7403 260.802 65.1309C261.015 65.5097 261.311 65.776 261.69 65.9299C262.08 66.0838 262.53 66.1607 263.039 66.1607C263.394 66.1607 263.749 66.1311 264.104 66.0719C264.46 66.0009 264.732 65.9477 264.921 65.9121L266.111 71.5407C265.732 71.6591 265.199 71.7952 264.513 71.9491C263.826 72.1148 262.992 72.2154 262.009 72.2509C260.186 72.3219 258.588 72.0793 257.215 71.5229C255.854 70.9666 254.795 70.1025 254.037 68.9306C253.279 67.7587 252.907 66.2791 252.918 64.4917V38.0712ZM270.541 71.8781V44.6053H278.105V71.8781H270.541ZM274.341 41.0897C273.216 41.0897 272.251 40.7168 271.446 39.9711C270.653 39.2135 270.257 38.308 270.257 37.2545C270.257 36.2128 270.653 35.3191 271.446 34.5734C272.251 33.8158 273.216 33.437 274.341 33.437C275.465 33.437 276.424 33.8158 277.217 34.5734C278.022 35.3191 278.424 36.2128 278.424 37.2545C278.424 38.308 278.022 39.2135 277.217 39.9711C276.424 40.7168 275.465 41.0897 274.341 41.0897ZM291.018 64.03L291.035 54.9569H292.136L300.872 44.6053H309.555L297.818 58.3127H296.025L291.018 64.03ZM284.164 71.8781V35.5144H291.728V71.8781H284.164ZM301.209 71.8781L293.184 59.9995L298.226 54.655L310.07 71.8781H301.209Z" fill="white"/>
<g clip-path="url(#clip0_3_905)">
<path d="M40.1629 26.0975C34.8471 26.0975 29.7492 28.2028 25.9904 31.9503L13.7233 44.1804C9.96456 47.9278 7.85291 53.0104 7.85291 58.3101C7.85291 69.3462 16.8264 78.2927 27.8959 78.2927C33.2116 78.2927 38.3096 76.1873 42.0683 72.4398L50.5535 63.9802C50.5535 63.9801 50.5537 63.9804 50.5535 63.9802L75.2765 39.3318C77.0717 37.542 79.5065 36.5366 82.0452 36.5366C86.2956 36.5366 89.899 39.2984 91.1484 43.1202L98.9509 35.3412C95.3914 29.7831 89.1501 26.0975 82.0452 26.0975C76.7295 26.0975 71.6315 28.2028 67.8728 31.9503L34.6646 65.0584C32.8694 66.8482 30.4347 67.8536 27.8959 67.8536C22.6092 67.8536 18.3235 63.5809 18.3235 58.3101C18.3235 55.779 19.332 53.3516 21.1272 51.5618L33.3942 39.3318C35.1893 37.542 37.6241 36.5366 40.1629 36.5366C44.4134 36.5366 48.0167 39.2985 49.266 43.1205L57.0687 35.3414C53.5092 29.7832 47.2679 26.0975 40.1629 26.0975Z" fill="#3A6FF8"/>
<path d="M34.1442 65.0584C32.349 66.8482 29.9143 67.8536 27.3755 67.8536C23.1257 67.8536 19.5226 65.0925 18.2729 61.2713L10.4706 69.0501C14.0302 74.6075 20.2712 78.2927 27.3755 78.2927C32.6913 78.2927 37.7892 76.1873 41.548 72.4398L74.7562 39.3318C76.5513 37.542 78.9861 36.5366 81.5249 36.5366C86.8116 36.5366 91.0973 40.8093 91.0973 46.0801C91.0973 48.6112 90.0888 51.0386 88.2936 52.8284L76.0266 65.0584C74.2314 66.8482 71.7966 67.8536 69.2579 67.8536C65.0077 67.8536 61.4044 65.092 60.1549 61.2704L52.3526 69.0494C55.9121 74.6073 62.1532 78.2927 69.2579 78.2927C74.5736 78.2927 79.6716 76.1873 83.4303 72.4398L95.6973 60.2098C99.4561 56.4624 101.568 51.3798 101.568 46.0801C101.568 35.044 92.5944 26.0975 81.5249 26.0975C76.2091 26.0975 71.1112 28.2028 67.3524 31.9503L34.1442 65.0584Z" fill="#3A6FF8"/>
</g>
<defs>
<clipPath id="clip0_3_905">
<rect width="94.2353" height="52.1951" fill="white" transform="translate(7.85291 26.0975)"/>
</clipPath>
</defs>
</svg>
